<svg width="128" height="29" viewBox="0 0 128 29" fill="none" xmlns="http://www.w3.org/2000/svg">
<path fill-rule="evenodd" clip-rule="evenodd" d="M26.4266 0.000179822C26.4762 0.000291656 26.5258 0.00025119 26.5754 0.000126387C27.0944 -0.00114548 27.6198 0.00573405 28.1334 0.0886476C28.1702 0.0944251 28.2071 0.0984682 28.2442 0.102217C28.3976 0.118655 28.5502 0.141135 28.7028 0.163885L28.745 0.170126C28.8269 0.182191 28.9078 0.196626 28.9888 0.214563C29.0353 0.224567 29.0825 0.232296 29.1295 0.239978C29.2157 0.25451 29.3007 0.27211 29.3858 0.292058C29.4456 0.306024 29.5054 0.318548 29.5656 0.330171C29.6561 0.347824 29.7453 0.369649 29.8346 0.392643C29.8621 0.39967 29.8898 0.40649 29.9174 0.413261C30.1197 0.462907 30.3199 0.519385 30.5192 0.579994C30.543 0.587188 30.5669 0.594241 30.5908 0.601254C30.7105 0.636513 30.8289 0.675216 30.9471 0.715217L31.0128 0.73706C31.1009 0.766098 31.188 0.797099 31.275 0.829324L31.386 0.870309C31.4341 0.887864 31.4823 0.904881 31.5306 0.921796C31.5689 0.936026 31.6055 0.952922 31.6425 0.970252C31.6785 0.986474 31.7152 1.00035 31.7521 1.01427L31.7627 1.01828C31.8222 1.0412 31.8811 1.0657 31.9399 1.0902L31.9433 1.09159L31.9936 1.11237C32.0651 1.14187 32.1357 1.17315 32.2059 1.20554L32.2366 1.21958C32.2801 1.23956 32.3234 1.25971 32.3661 1.28133C32.3926 1.29454 32.418 1.306 32.4456 1.31612C32.4971 1.33623 32.5458 1.3607 32.595 1.38572C32.6448 1.411 32.6952 1.43481 32.7459 1.45821C32.799 1.48285 32.8493 1.50925 32.8989 1.54041C32.9326 1.56026 32.9672 1.57747 33.0022 1.59473C33.1042 1.64506 33.2037 1.69894 33.3017 1.75666C33.3287 1.77235 33.3559 1.78744 33.3834 1.8023C33.5033 1.86728 33.6198 1.93706 33.7359 2.00847C33.7601 2.02334 33.7846 2.03795 33.809 2.0525C33.861 2.08356 33.9119 2.11614 33.9629 2.14887L34.0497 2.20471C34.0962 2.23516 34.1194 2.25037 34.1429 2.26511C34.1664 2.27983 34.1902 2.29407 34.2377 2.32254L34.2594 2.33667V2.35644L34.2766 2.35964C34.3023 2.36733 34.3181 2.37822 34.3397 2.39412C34.3739 2.41885 34.4084 2.44269 34.4438 2.46578L34.4683 2.48181L34.5174 2.51371L34.5402 2.52868L34.5609 2.54209L34.5757 2.55412V2.57389L34.5918 2.57574C34.6199 2.58538 34.6399 2.60291 34.6614 2.62178L34.6745 2.63319L34.7042 2.64308V2.66285L34.7238 2.66879C34.7625 2.68676 34.7939 2.71201 34.8269 2.73847L34.8358 2.74563L34.9079 2.80255C34.9428 2.82981 34.9782 2.85633 35.0137 2.88277L35.109 2.954L35.1638 2.9952L35.1805 3.00761C35.1934 3.01742 35.2059 3.02787 35.2182 3.03845V3.05821H35.2478C35.2588 3.06918 35.2697 3.08023 35.2802 3.09157C35.3059 3.1158 35.3348 3.13574 35.3638 3.15572L35.3791 3.16632C35.4072 3.18763 35.4306 3.21111 35.4554 3.23613C35.4839 3.25968 35.513 3.28256 35.5421 3.30544L35.5641 3.32509V3.34486H35.5938C35.6055 3.35589 35.6171 3.36704 35.6281 3.37876C35.6459 3.39708 35.6647 3.41387 35.684 3.43073L35.7038 3.44814C35.7124 3.4555 35.7172 3.45965 35.7223 3.4635C35.7289 3.46849 35.7359 3.47296 35.7519 3.48324V3.503L35.768 3.5098C35.7996 3.52728 35.824 3.54785 35.8507 3.57219V3.59196L35.8668 3.59876C35.9185 3.62731 35.9597 3.66992 36.0005 3.71207L36.0147 3.72663C36.0438 3.7561 36.0732 3.78441 36.1047 3.81127C36.1471 3.84769 36.1861 3.8872 36.2251 3.92716C36.2477 3.95014 36.2686 3.96938 36.2955 3.98733V4.0071L36.3252 4.01698V4.03675L36.3548 4.04664C36.3682 4.06295 36.3814 4.07943 36.3944 4.09606L36.424 4.11583V4.13559L36.4537 4.14548V4.16525L36.4833 4.17513C36.4861 4.17795 36.4883 4.1802 36.4902 4.18215C36.4926 4.18461 36.4945 4.18659 36.4963 4.18861C36.5003 4.19301 36.504 4.19762 36.5123 4.20781C36.5498 4.25226 36.5906 4.29265 36.6325 4.3329C36.6457 4.34585 36.6585 4.3593 36.6711 4.37282V4.39258L36.7008 4.40247C36.707 4.40866 36.7105 4.41206 36.7137 4.41561C36.7177 4.41994 36.7215 4.42449 36.7298 4.43459C36.7528 4.4618 36.7762 4.48838 36.8005 4.51432L36.8167 4.53159L36.8491 4.56574C36.872 4.59023 36.8877 4.60745 36.8985 4.63969L36.9281 4.64957C36.9467 4.67091 36.9537 4.67887 36.9562 4.68806C36.9578 4.69354 36.9578 4.69945 36.9578 4.70888L36.9748 4.71548C37.003 4.73195 37.0191 4.75234 37.0389 4.77746L37.0418 4.78116L37.0644 4.80946L37.1057 4.86251C37.1263 4.88738 37.1486 4.90961 37.1714 4.93234L37.1752 4.93622C37.1942 4.95748 37.2125 4.97924 37.2308 5.00108L37.2451 5.01797C37.2992 5.08214 37.3106 5.09569 37.313 5.11068C37.3136 5.11469 37.3136 5.1188 37.3136 5.12402L37.3433 5.1339C37.3595 5.15296 37.3743 5.17178 37.389 5.19197L37.4012 5.20822C37.4193 5.23277 37.4324 5.25302 37.4421 5.28216H37.4619C37.4812 5.30545 37.4995 5.32891 37.5175 5.35321L37.5522 5.39938L37.5709 5.42431C37.591 5.45101 37.6113 5.47757 37.6316 5.50409L37.6927 5.58377C37.7304 5.63308 37.7666 5.68314 37.8019 5.73413C37.8265 5.76915 37.8528 5.80285 37.8791 5.83659L37.8887 5.84888C37.9047 5.87227 37.9125 5.88715 37.9166 5.91475H37.9363C37.944 5.92399 37.9482 5.92908 37.9522 5.93432C37.9572 5.94076 37.9618 5.94743 37.9721 5.96229L37.9911 5.98908C37.9982 6.0011 38.0018 6.00723 38.0036 6.01385C38.0055 6.02072 38.0055 6.02814 38.0055 6.04325H38.0253C38.0429 6.06681 38.0593 6.09032 38.0753 6.11491L38.0891 6.13533C38.1102 6.16729 38.1263 6.19311 38.134 6.23105H38.1538C38.1597 6.23915 38.1632 6.24378 38.1664 6.24854C38.1707 6.25485 38.1747 6.26138 38.1839 6.27654L38.223 6.33977L38.2402 6.36668L38.2674 6.40896L38.3309 6.50765L38.3633 6.55831C38.3865 6.5955 38.4089 6.63309 38.4314 6.67069L38.4404 6.68572L38.4697 6.73445C38.5183 6.81529 38.5668 6.89618 38.614 6.97785C38.6265 6.99905 38.6395 7.01969 38.6529 7.04032C38.6795 7.08217 38.7009 7.12668 38.7224 7.1713L38.7286 7.18426C38.745 7.21712 38.7642 7.24768 38.7839 7.27864C38.8033 7.30995 38.8201 7.34246 38.837 7.37515C38.8617 7.42239 38.8866 7.4694 38.9127 7.51588C38.9584 7.59734 39.0018 7.6781 39.0378 7.76433C39.0588 7.81409 39.0831 7.86142 39.1088 7.90889C39.1386 7.96391 39.1649 8.0187 39.1879 8.07699C39.203 8.11254 39.2202 8.1467 39.2379 8.18102C39.2807 8.26568 39.3184 8.35218 39.3553 8.43955L39.3739 8.48312C39.4051 8.55627 39.4358 8.62961 39.4662 8.7031L39.4746 8.72337C39.4984 8.78138 39.5204 8.84002 39.5422 8.89886C39.5578 8.94089 39.5742 8.9826 39.5906 9.02432L39.5919 9.02766C39.6179 9.09381 39.6421 9.16041 39.6654 9.22754C39.6783 9.26451 39.6918 9.301 39.7068 9.33716C39.7255 9.38273 39.7396 9.42921 39.7538 9.47635C39.7663 9.51728 39.7797 9.55788 39.7933 9.59848L39.801 9.62143C39.8134 9.6586 39.826 9.69572 39.8388 9.73276C39.8716 9.82853 39.9 9.9251 39.9269 10.0227C39.9449 10.0879 39.9637 10.1528 39.9836 10.2175C40.0103 10.3051 40.0328 10.3934 40.0544 10.4823C40.0601 10.5056 40.0659 10.5288 40.0717 10.552C40.0757 10.5678 40.0797 10.5837 40.0837 10.5996L40.0875 10.6148C40.102 10.6724 40.1163 10.73 40.1306 10.7877L40.1368 10.8124C40.1763 10.9727 40.2071 11.135 40.2379 11.2971L40.2518 11.3703C40.2627 11.4276 40.274 11.4848 40.2857 11.542C40.2961 11.5936 40.3048 11.6453 40.3125 11.6974C40.3173 11.7295 40.3225 11.7616 40.3277 11.7936L40.3329 11.8254L40.3432 11.8876C40.3539 11.9533 40.3625 12.0191 40.37 12.0852C40.3761 12.138 40.3826 12.1907 40.3894 12.2435C40.416 12.4498 40.4403 12.6559 40.4568 12.8634L40.4587 12.8872C40.4862 13.2369 40.4911 13.5857 40.4903 13.9363C40.4902 13.9859 40.4902 14.0354 40.4903 14.085C40.4918 14.6772 40.4555 15.2613 40.3777 15.8484L40.3736 15.8798C40.3654 15.9419 40.3569 16.0039 40.3481 16.0658L40.3449 16.0886C40.3121 16.3211 40.2736 16.5535 40.2217 16.7826C40.2086 16.8407 40.1972 16.8991 40.1858 16.9576L40.1844 16.9647C40.1688 17.0438 40.1518 17.122 40.1315 17.2C40.1206 17.242 40.1106 17.2842 40.1006 17.3265L40.0999 17.3295C40.0501 17.5394 39.9942 17.7467 39.9321 17.9533C39.9196 17.9948 39.9074 18.0363 39.8952 18.0779L39.8736 18.1514L39.8673 18.1729C39.8456 18.2466 39.8214 18.3195 39.797 18.3923L39.7904 18.4121C39.7533 18.5233 39.7153 18.6341 39.6759 18.7445L39.665 18.7753L39.6296 18.8748L39.6186 18.906C39.5997 18.9586 39.5794 19.0099 39.5563 19.0608C39.5436 19.0891 39.5332 19.1181 39.5227 19.1472C39.4341 19.3882 39.3347 19.6308 39.2175 19.8592C39.2006 19.8922 39.1854 19.9249 39.1725 19.9596C39.154 20.0085 39.1294 20.0539 39.1046 20.0997L39.0962 20.1153C39.071 20.1622 39.048 20.2095 39.0265 20.2582C38.9822 20.3558 38.9322 20.4502 38.879 20.5431C38.8482 20.5972 38.8201 20.6524 38.7928 20.7083C38.7756 20.7434 38.7573 20.777 38.7369 20.8103L38.7091 20.8622C38.6902 20.8972 38.6705 20.9307 38.648 20.9635C38.6275 20.9934 38.6094 21.0235 38.5924 21.0555C38.5557 21.1242 38.5154 21.1907 38.475 21.2572L38.4553 21.2896L38.4091 21.3667C38.3893 21.3998 38.3692 21.4326 38.3484 21.4651L38.3309 21.4924L38.2789 21.5734L38.2561 21.6087L38.236 21.6401C38.2247 21.6578 38.2136 21.6755 38.2026 21.6933L38.184 21.7233L38.1677 21.7501L38.1538 21.769H38.134L38.1304 21.7865C38.1214 21.8182 38.1034 21.8443 38.085 21.8709L38.0753 21.8852L38.0617 21.9061C38.0501 21.9234 38.0377 21.9402 38.0253 21.9568H38.0055L38.0024 21.9737C37.9944 22.0006 37.9822 22.02 37.9666 22.0433L37.9509 22.0673L37.9363 22.0853H37.9166L37.9141 22.1017C37.9048 22.1308 37.8892 22.1508 37.8708 22.1743L37.8665 22.1798L37.8418 22.212L37.8293 22.2282L37.8124 22.2509C37.8023 22.2646 37.7924 22.2784 37.7825 22.2923C37.7014 22.4042 37.6167 22.5136 37.532 22.6228L37.4996 22.6646C37.4865 22.6819 37.474 22.6998 37.4619 22.7179H37.4421L37.435 22.7338C37.4186 22.7644 37.3986 22.7916 37.3779 22.8192L37.3658 22.8358C37.3555 22.8496 37.3445 22.8629 37.3334 22.8761H37.3136L37.3064 22.8926C37.2911 22.9206 37.2724 22.9431 37.2518 22.9675C37.2246 23.0003 37.1979 23.0331 37.1728 23.0676C37.1496 23.099 37.1241 23.1255 37.0962 23.1528C37.0685 23.1822 37.0547 23.1969 37.0415 23.2121C37.0284 23.2272 37.0159 23.243 36.991 23.2743L36.9776 23.2912H36.9578L36.9491 23.3091C36.9446 23.3179 36.9419 23.3231 36.939 23.3282C36.9348 23.3356 36.93 23.3428 36.9182 23.3604H36.8985L36.8906 23.3782C36.8783 23.4007 36.8658 23.4145 36.8472 23.4321C36.7986 23.4792 36.7549 23.53 36.7125 23.5828L36.6909 23.6075H36.6711L36.663 23.6254C36.6515 23.6468 36.6404 23.6602 36.6231 23.6769L36.6064 23.6933L36.589 23.71C36.556 23.742 36.524 23.7734 36.4953 23.8093L36.4735 23.8348H36.4537L36.4438 23.8645H36.424L36.4142 23.8941C36.3978 23.9075 36.3814 23.9207 36.3647 23.9337L36.345 23.9633H36.3252L36.3153 23.993H36.2955L36.2857 24.0226C36.2794 24.0288 36.2758 24.0323 36.2722 24.0356C36.2678 24.0396 36.2632 24.0433 36.2531 24.0515C36.2159 24.083 36.1814 24.1165 36.1473 24.1511C36.0948 24.2042 36.0409 24.2543 35.9823 24.3006C35.9483 24.3282 35.9185 24.3596 35.8884 24.3914C35.8786 24.4006 35.8742 24.4047 35.8689 24.4066C35.8646 24.4081 35.8597 24.4081 35.8507 24.4081L35.8409 24.4378C35.8243 24.4528 35.8071 24.4671 35.7896 24.481L35.7597 24.5049L35.7321 24.5267C35.6875 24.5628 35.6457 24.6007 35.6073 24.6435C35.6021 24.6481 35.5988 24.6509 35.5951 24.6526C35.5893 24.6552 35.5822 24.6552 35.5641 24.6552L35.5581 24.6719C35.5403 24.7015 35.5153 24.7195 35.4881 24.7391L35.4819 24.7436C35.44 24.7743 35.4033 24.8061 35.3664 24.843C35.3477 24.8572 35.3288 24.871 35.3096 24.8844C35.2909 24.8964 35.2817 24.9023 35.2739 24.9097C35.2664 24.9168 35.2601 24.9252 35.2478 24.9419H35.2182L35.2083 24.9715C35.1858 24.9899 35.1633 25.0071 35.1397 25.024L35.0733 25.0729C35.0376 25.0995 35.0026 25.127 34.9676 25.1544L34.9606 25.1599C34.9036 25.2044 34.8463 25.2485 34.7882 25.2915L34.7694 25.3056C34.7396 25.3275 34.7304 25.3342 34.7202 25.3363C34.7157 25.3372 34.711 25.3372 34.7042 25.3372V25.357L34.6714 25.3749C34.6504 25.3868 34.6349 25.3966 34.6177 25.4138L34.6053 25.4262H34.5757V25.446C34.5533 25.4623 34.531 25.4774 34.5077 25.4923L34.4668 25.519L34.4465 25.5323C34.3993 25.5633 34.3519 25.5951 34.308 25.6307C34.2996 25.6364 34.295 25.6396 34.2898 25.6414C34.2833 25.6436 34.276 25.6436 34.2594 25.6436V25.6634C34.2354 25.6797 34.2114 25.6949 34.1865 25.7097C34.1392 25.7386 34.0925 25.7676 34.0475 25.7999C34.011 25.8261 33.9736 25.848 33.934 25.8692C33.9089 25.8835 33.8862 25.9001 33.863 25.9173C33.8438 25.9306 33.8242 25.9418 33.8037 25.9529C33.7544 25.98 33.7064 26.0087 33.6583 26.0378C33.5524 26.1015 33.4459 26.1639 33.338 26.2242C33.302 26.2443 33.2665 26.265 33.2314 26.2867C33.1851 26.3149 33.1369 26.3389 33.0883 26.3628C33.035 26.3891 32.9824 26.4164 32.93 26.4443C32.853 26.485 32.7756 26.5244 32.6976 26.563C32.663 26.5802 32.6284 26.5975 32.5939 26.6148L32.5384 26.6425L32.4991 26.6624C32.4658 26.6792 32.4331 26.6952 32.3981 26.7081C32.3477 26.7277 32.2992 26.7508 32.2504 26.7742C32.173 26.8113 32.0949 26.846 32.0157 26.8792L31.9831 26.8933C31.9398 26.9119 31.8958 26.9291 31.852 26.9465C31.7929 26.97 31.7342 26.9939 31.6759 27.0194C31.6193 27.044 31.562 27.065 31.5038 27.0854C31.4775 27.0947 31.4516 27.1046 31.4257 27.1152C31.3048 27.1643 31.1816 27.2076 31.0576 27.2481L31.0191 27.2608L30.9103 27.297C30.8665 27.3116 30.8228 27.3263 30.7792 27.3413C30.6729 27.3779 30.5659 27.4091 30.4572 27.4377C30.3972 27.4535 30.3376 27.47 30.2785 27.4889C30.161 27.5264 30.043 27.558 29.923 27.5861C29.8765 27.597 29.8301 27.6083 29.7837 27.6197C29.628 27.6581 29.4723 27.6937 29.3148 27.7239C29.2727 27.7321 29.2307 27.7412 29.1888 27.7502C29.1113 27.7667 29.0335 27.781 28.9554 27.7943C28.9289 27.7989 28.9024 27.8036 28.876 27.8083C28.7836 27.8247 28.6914 27.8405 28.5982 27.8522C28.5574 27.8574 28.5167 27.8636 28.476 27.8698L28.4603 27.8722C28.3548 27.8882 28.2495 27.9025 28.1432 27.9128C28.1055 27.9165 28.068 27.9213 28.0305 27.9263C27.5404 27.989 27.0476 28.0011 26.5542 27.9999C26.5046 27.9998 26.455 27.9998 26.4054 28C25.8133 28.0014 25.2291 27.9651 24.642 27.8874L24.6107 27.8832C24.5486 27.875 24.4866 27.8665 24.4246 27.8577L24.3998 27.8542C24.269 27.8356 24.1393 27.8128 24.0095 27.7885L23.9714 27.7815L23.8195 27.7529C23.6278 27.7171 23.438 27.6761 23.2484 27.6304L23.179 27.6139C22.9703 27.5641 22.9203 27.5521 22.8707 27.5383C22.8551 27.534 22.8395 27.5295 22.819 27.5235L22.7649 27.5078L22.6182 27.4658C22.5729 27.4529 22.5275 27.44 22.4821 27.4273C22.3943 27.4027 22.3081 27.3767 22.2225 27.345C22.1915 27.3341 22.1606 27.3251 22.129 27.3166C21.9765 27.2742 21.8268 27.2195 21.6806 27.1593C21.6329 27.1404 21.5845 27.1248 21.5357 27.1092C21.4643 27.0848 21.3948 27.0554 21.3252 27.026L21.2833 27.0083C21.2097 26.9775 21.136 26.9476 21.0613 26.9194C21.0244 26.9049 20.9886 26.8884 20.9526 26.8717C20.9249 26.8591 20.8969 26.8474 20.8688 26.8359C20.8182 26.8151 20.7687 26.7925 20.7193 26.7691C20.6832 26.7521 20.647 26.7355 20.6105 26.7194C20.5278 26.6828 20.4465 26.6454 20.3672 26.6019C20.3226 26.5776 20.2773 26.5557 20.2312 26.5345C20.1459 26.495 20.063 26.4515 19.9801 26.4072C19.9506 26.3915 19.9209 26.3758 19.8913 26.3602L19.8895 26.3593L19.7609 26.291C19.6802 26.2476 19.6011 26.2014 19.5221 26.1552C19.5122 26.1494 19.5023 26.1436 19.4924 26.1379L19.4692 26.1244C19.3917 26.0792 19.3148 26.0335 19.2394 25.9848C19.217 25.9707 19.1944 25.9578 19.1711 25.9451C19.1298 25.9226 19.0903 25.8978 19.0508 25.8723C19.0259 25.8563 19.0009 25.8406 18.9758 25.8249C18.8707 25.7593 18.7679 25.691 18.666 25.6205C18.642 25.6039 18.6178 25.5874 18.5936 25.5709C18.5159 25.518 18.4386 25.4648 18.3624 25.4097C18.323 25.3814 18.2829 25.3546 18.2418 25.3289L18.2272 25.3175V25.2977H18.1975V25.2779L18.178 25.272C18.1391 25.254 18.1077 25.2287 18.0747 25.2022L18.066 25.1952L17.9944 25.1386C17.9501 25.1041 17.9048 25.071 17.8593 25.0381C17.8432 25.0262 17.8276 25.0138 17.8121 25.0012V24.9814L17.796 24.9743C17.7234 24.9351 17.6573 24.8771 17.5941 24.8215L17.5564 24.7886C17.5422 24.7761 17.535 24.7699 17.5274 24.7644C17.5199 24.7588 17.5118 24.7539 17.4958 24.7442V24.7244L17.4793 24.7172C17.441 24.6964 17.4077 24.6675 17.3746 24.6389C17.3656 24.6311 17.3565 24.6233 17.3475 24.6157L17.325 24.5973C17.3091 24.5842 17.2936 24.5703 17.2783 24.5564V24.5366L17.2613 24.5292C17.2352 24.5149 17.2162 24.4981 17.1943 24.4779L17.1683 24.4541L17.1399 24.4279L17.0921 24.3838L17.0611 24.3551C17.0387 24.3344 17.0171 24.3164 16.9917 24.2994V24.2796L16.962 24.2697V24.25L16.946 24.2432C16.8943 24.2146 16.8596 24.1773 16.8236 24.1314L16.794 24.1116V24.0918L16.7764 24.084C16.7533 24.0715 16.7382 24.0583 16.7197 24.0397L16.6997 24.0198L16.6785 23.9984L16.6563 23.9762L16.4731 23.7923C16.4395 23.7584 16.4084 23.7241 16.3788 23.6866C16.3644 23.6746 16.3499 23.6627 16.3353 23.6509C16.3072 23.6264 16.2819 23.5984 16.2602 23.568V23.5482L16.2306 23.5383V23.5185L16.2009 23.5087C16.1943 23.5021 16.1907 23.4985 16.1873 23.4948C16.1831 23.4903 16.1792 23.4856 16.1707 23.4753C16.1417 23.4411 16.112 23.4077 16.0817 23.3746C15.9901 23.2739 15.9761 23.2585 15.974 23.2417C15.9736 23.2386 15.9736 23.2355 15.9736 23.2319L15.9439 23.222C15.9254 23.2007 15.9184 23.1927 15.9158 23.1835C15.9143 23.178 15.9143 23.1721 15.9143 23.1627L15.8846 23.1528C15.849 23.1138 15.839 23.103 15.8363 23.0906C15.8352 23.0858 15.8352 23.0807 15.8352 23.0738H15.8154C15.8022 23.0541 15.789 23.0343 15.7759 23.0144L15.7537 22.9922C15.7147 22.9533 15.6794 22.911 15.6474 22.8662V22.8464H15.6276C15.6193 22.8387 15.6153 22.835 15.6114 22.8311C15.6079 22.8276 15.6045 22.8239 15.598 22.8168C15.5357 22.8387 15.478 22.8669 15.4201 22.8983C15.3616 22.93 15.3026 22.9589 15.2415 22.9854C15.186 23.0096 15.1312 23.0346 15.0772 23.062C14.9889 23.1068 14.8996 23.1493 14.8102 23.1919L14.7974 23.198L14.6516 23.2677C14.5897 23.2973 14.5278 23.3268 14.4658 23.3561C14.3948 23.3895 14.3243 23.4237 14.2542 23.4591C14.1802 23.4963 14.1052 23.5315 14.0302 23.5668L14.0066 23.5778C13.943 23.6077 13.9107 23.6229 13.879 23.6381C13.8471 23.6534 13.8155 23.669 13.7521 23.7002C13.6747 23.7392 13.5964 23.7765 13.5181 23.8137L13.4841 23.8299C13.4381 23.8519 13.3923 23.8739 13.3464 23.896L13.3271 23.9053C13.2082 23.9624 13.0891 24.0189 12.9698 24.0751C12.8887 24.1133 12.8081 24.1522 12.7281 24.1926C12.6881 24.2126 12.6476 24.2316 12.6071 24.2507L12.5994 24.2543C12.5409 24.2818 12.4828 24.3098 12.4252 24.3389C12.3375 24.3831 12.2488 24.4249 12.16 24.4666L12.0375 24.5244C11.9915 24.5462 11.946 24.5686 11.9007 24.5916C11.8492 24.6176 11.7972 24.6414 11.7444 24.6645C11.6803 24.6926 11.6174 24.7224 11.555 24.7541C11.5078 24.778 11.4601 24.8009 11.412 24.8233C11.3577 24.8486 11.3037 24.8747 11.2502 24.9017C11.1842 24.9351 11.1175 24.9669 11.0505 24.9983C11.0041 25.0202 10.958 25.0428 10.9123 25.066C10.8611 25.0919 10.8092 25.1154 10.7566 25.1383C10.6968 25.1643 10.639 25.1925 10.5818 25.2236C10.5177 25.2584 10.4526 25.2889 10.3857 25.318C10.3163 25.3483 10.2487 25.3818 10.1813 25.4162C10.0924 25.4615 10.0032 25.5059 9.91245 25.5473C9.86381 25.5696 9.81557 25.5928 9.76734 25.616L9.7354 25.6313C9.67311 25.6612 9.61072 25.6908 9.54824 25.7203C9.48332 25.7509 9.41904 25.7825 9.35495 25.8149C9.3137 25.8353 9.27198 25.8547 9.23017 25.8739C9.17624 25.8989 9.12317 25.9255 9.0701 25.9523C9.0301 25.9724 8.98985 25.9912 8.94878 26.009C8.9188 26.0226 8.88949 26.0374 8.86016 26.0523L8.84692 26.0589C8.77135 26.0969 8.69487 26.1331 8.61839 26.1692L8.5802 26.1873L8.53175 26.2103C8.46912 26.2399 8.40649 26.2696 8.34379 26.2991C8.26278 26.3373 8.18224 26.3762 8.10228 26.4165C8.05869 26.4383 8.01458 26.459 7.97046 26.4797L7.94934 26.4896C7.89831 26.5137 7.84779 26.5386 7.7975 26.5641C7.74631 26.5901 7.69464 26.6139 7.64182 26.6364C7.58607 26.6601 7.5326 26.6866 7.47935 26.7155C7.41484 26.7505 7.34934 26.7813 7.28204 26.8105C7.22606 26.8349 7.17147 26.8614 7.11703 26.8891C7.0629 26.9165 7.00816 26.9424 6.9531 26.9679C6.91687 26.9848 6.88108 27.0022 6.84564 27.0207L6.8239 27.0319C6.81562 27.0363 6.80736 27.0406 6.79912 27.045C6.79374 27.0479 6.78837 27.0507 6.78301 27.0536C6.75862 27.0663 6.7376 27.0765 6.70992 27.0783C6.68401 27.0616 6.67259 27.0362 6.66053 27.0093L6.65587 26.999L6.64568 26.9778C6.63472 26.9548 6.62398 26.9318 6.61324 26.9088L6.55751 26.791C6.53363 26.7403 6.5089 26.6901 6.48351 26.6401C6.45335 26.5807 6.42584 26.5204 6.40007 26.459C6.38651 26.427 6.37182 26.3967 6.35425 26.3668C6.34294 26.3469 6.33883 26.3397 6.33734 26.3319C6.33649 26.3275 6.33648 26.323 6.33648 26.3158L6.47202 26.248L6.51865 26.2246C6.57518 26.1962 6.63205 26.1686 6.68923 26.1416L6.77193 26.1023L6.94939 26.0177C7.0008 25.9931 7.05188 25.968 7.10279 25.9424C7.14384 25.922 7.18525 25.9024 7.22668 25.8827L7.25391 25.8698C7.30295 25.8465 7.35205 25.8233 7.40123 25.8003C7.46146 25.7722 7.52129 25.7434 7.58066 25.7135C7.66926 25.6688 7.75898 25.6266 7.84877 25.5843L7.96959 25.5274C8.01553 25.5056 8.06105 25.4832 8.10638 25.4602C8.15782 25.4342 8.2099 25.4104 8.26267 25.3873C8.34696 25.3503 8.42905 25.3098 8.51101 25.268C8.6221 25.2118 8.73429 25.158 8.8467 25.1044L8.9642 25.0483C9.03595 25.0139 9.10774 24.9796 9.17969 24.9457C9.24005 24.9172 9.30022 24.8885 9.35982 24.8585C9.46651 24.8047 9.57469 24.7539 9.68291 24.7033C9.74942 24.6722 9.81565 24.6407 9.88121 24.6077C10.0243 24.5355 10.1694 24.4675 10.3145 24.3995L10.3822 24.3677C10.4719 24.3256 10.5611 24.2829 10.6496 24.2382C10.6892 24.2183 10.7292 24.1992 10.7696 24.1808C10.8158 24.1597 10.8614 24.1376 10.9067 24.1147C11.0016 24.0668 11.0976 24.0212 11.1936 23.9756L11.7989 23.6865C11.8516 23.6613 11.9043 23.6362 11.9572 23.6113C12.0175 23.5829 12.0777 23.5541 12.1373 23.5241C12.2333 23.4757 12.3307 23.4298 12.428 23.384L12.4655 23.3664C12.5343 23.3339 12.6031 23.3014 12.671 23.2671C12.7777 23.2133 12.8859 23.1625 12.9941 23.1119C13.07 23.0765 13.1452 23.0401 13.22 23.0024C13.2636 22.9805 13.3075 22.9599 13.352 22.94C13.4559 22.8927 13.5588 22.8434 13.6607 22.7921C13.7559 22.744 13.8524 22.6986 13.9489 22.6532L13.9876 22.6349C14.0681 22.597 14.1481 22.5585 14.2275 22.5184C14.2716 22.4963 14.3163 22.4753 14.361 22.4544L14.3819 22.4445C14.4287 22.4224 14.4751 22.3998 14.5212 22.3763C14.5727 22.3503 14.6248 22.3265 14.6775 22.3034C14.7552 22.2694 14.8311 22.2325 14.9067 22.1939C14.9362 22.1789 14.9659 22.1641 14.9956 22.1493L15.0049 22.1446L15.0642 22.115L15.0246 22.0555C15.0097 22.0332 14.9948 22.011 14.9797 21.9888L14.9531 21.9494L14.94 21.9303C14.9177 21.8973 14.8994 21.8663 14.8863 21.8283H14.8666C14.8561 21.8123 14.8463 21.7957 14.8369 21.7789L14.8207 21.7532L14.7937 21.711L14.7818 21.6924C14.7613 21.6606 14.7404 21.6295 14.7177 21.5992C14.7075 21.5844 14.7028 21.5775 14.7005 21.5698C14.6985 21.563 14.6985 21.5556 14.6985 21.5417H14.6788L14.6636 21.5146L14.6429 21.4781L14.633 21.4603C14.6137 21.4262 14.5932 21.3932 14.5712 21.3607C14.538 21.3115 14.5079 21.2606 14.478 21.2093C14.4547 21.1696 14.4431 21.1497 14.4313 21.1299C14.4258 21.1206 14.4203 21.1114 14.4136 21.1002C14.4058 21.0874 14.3965 21.0719 14.3838 21.0508L14.3712 21.0302L14.348 20.9929C14.3314 20.9658 14.3229 20.9515 14.3229 20.919C14.2628 20.9405 14.2066 20.967 14.1506 20.9974C14.1009 21.0245 14.0511 21.0496 13.9993 21.0725C13.9543 21.0928 13.9097 21.114 13.8652 21.1352L13.8376 21.1483C13.7876 21.1722 13.7379 21.1966 13.6885 21.2217C13.6373 21.2476 13.5854 21.2711 13.5328 21.294C13.4695 21.3216 13.4084 21.3517 13.3478 21.3849C13.2978 21.4121 13.2467 21.4362 13.1947 21.4596C13.1712 21.4704 13.1481 21.4816 13.1251 21.4935C13.0984 21.5071 13.0716 21.5182 13.0435 21.5287C12.9968 21.5469 12.9535 21.5697 12.9095 21.5936C12.8437 21.6292 12.7771 21.6607 12.7085 21.6905C12.6525 21.7149 12.5979 21.7414 12.5435 21.769C12.4962 21.793 12.4485 21.8158 12.4005 21.8382C12.3461 21.8636 12.2922 21.8896 12.2386 21.9167C12.1726 21.95 12.1059 21.9818 12.039 22.0133C11.9925 22.0352 11.9465 22.0577 11.9007 22.081C11.8492 22.107 11.7972 22.1308 11.7444 22.1539C11.6803 22.182 11.6174 22.2118 11.555 22.2435C11.5078 22.2674 11.4601 22.2903 11.412 22.3127C11.3577 22.338 11.3037 22.3641 11.2502 22.3911C11.1846 22.4242 11.1184 22.4558 11.052 22.487C11.0013 22.5109 10.9511 22.5356 10.9011 22.561C10.85 22.587 10.7983 22.6108 10.7455 22.6333C10.6897 22.657 10.6362 22.6835 10.583 22.7124C10.5185 22.7474 10.453 22.7781 10.3857 22.8074C10.3035 22.8433 10.2238 22.8839 10.1439 22.9247C10.046 22.9747 9.94663 23.0213 9.84678 23.0674C9.77144 23.1022 9.69656 23.1375 9.6226 23.1751C9.57006 23.2018 9.51681 23.2268 9.46341 23.2517C9.41545 23.2741 9.3681 23.2975 9.3209 23.3215C9.2693 23.3477 9.21724 23.3717 9.16399 23.3944C9.10824 23.4181 9.05477 23.4445 9.00152 23.4734C8.93701 23.5084 8.87151 23.5392 8.80421 23.5685C8.74823 23.5929 8.69364 23.6194 8.6392 23.647C8.58498 23.6745 8.53011 23.7004 8.47501 23.7261C8.42705 23.7485 8.37968 23.7719 8.33248 23.7959C8.28088 23.8221 8.22881 23.8462 8.17557 23.8688C8.11981 23.8926 8.06635 23.919 8.01309 23.9479C7.94858 23.9829 7.88309 24.0137 7.81578 24.0429C7.75981 24.0673 7.70521 24.0938 7.65077 24.1215C7.6035 24.1454 7.5558 24.1683 7.50776 24.1907C7.45339 24.216 7.39947 24.2421 7.34591 24.2691C7.27989 24.3025 7.21322 24.3343 7.14628 24.3657C7.09981 24.3876 7.05378 24.4102 7.00799 24.4334C6.95655 24.4594 6.90447 24.4832 6.8517 24.5063C6.77396 24.5404 6.69804 24.5773 6.62242 24.6159C6.41156 24.7233 6.1974 24.8241 5.98331 24.9249L5.96185 24.935C5.89033 24.9688 5.81895 25.0026 5.74837 25.0382C5.69999 25.0627 5.65118 25.0855 5.60173 25.1077C5.57533 25.1198 5.54942 25.1326 5.52351 25.1457C5.44292 25.1864 5.36138 25.2251 5.27985 25.2639L5.22945 25.2878L5.17495 25.3138C5.03933 25.3785 5.03916 25.3785 4.97223 25.4101C4.89164 25.4481 4.81132 25.4868 4.73177 25.5269C4.68816 25.5487 4.64403 25.5694 4.59989 25.5902L4.57882 25.6001C4.5278 25.6241 4.47727 25.649 4.42698 25.6745C4.37579 25.7005 4.32412 25.7244 4.2713 25.7468C4.21555 25.7706 4.16208 25.797 4.10883 25.8259C4.04432 25.8609 3.97882 25.8917 3.91152 25.9209C3.85554 25.9453 3.80095 25.9718 3.74651 25.9995C3.69924 26.0234 3.65154 26.0463 3.6035 26.0687C3.51089 26.1119 3.41955 26.1575 3.32856 26.204C3.28504 26.2262 3.24213 26.2474 3.19639 26.2645C3.14915 26.2826 3.10552 26.306 3.0611 26.33C3.00429 26.3607 2.94768 26.3878 2.88763 26.4117C2.83796 26.4326 2.78998 26.4572 2.742 26.4817L2.71945 26.4932C2.6271 26.5402 2.53434 26.5862 2.44047 26.63C2.38114 26.6578 2.32202 26.6859 2.26295 26.7142L2.00227 26.839C1.95601 26.8612 1.90972 26.8832 1.86337 26.9052C1.78619 26.9418 1.7091 26.9785 1.63283 27.0169C1.54481 27.0613 1.4558 27.1037 1.36677 27.146L1.27109 27.1916C1.20337 27.2239 1.13564 27.2562 1.06777 27.2882C0.98807 27.3258 0.9088 27.3639 0.830127 27.4036C0.779941 27.4287 0.729238 27.4528 0.678539 27.4768L0.649407 27.4906C0.584051 27.5217 0.519128 27.5536 0.454975 27.5872C0.422332 27.6039 0.392951 27.6154 0.356534 27.6205C0.326795 27.5785 0.305042 27.5366 0.285491 27.4889C0.257498 27.4227 0.225884 27.3593 0.191313 27.2963C0.166135 27.2501 0.144027 27.203 0.122527 27.155C0.109129 27.1256 0.0950935 27.0966 0.080818 27.0677L0.0664357 27.0383L0.0369375 26.9788L0.0227483 26.9497L0.00989831 26.9237C6.3953e-05 26.8972 -0.00108912 26.8775 0.000701838 26.8495C0.0854225 26.8061 0.170667 26.7646 0.257691 26.726C0.324426 26.6963 0.390156 26.6654 0.455255 26.6323C0.506355 26.6064 0.55797 26.5817 0.609817 26.5573C0.6762 26.5261 0.741929 26.4939 0.807424 26.4608C0.842617 26.4434 0.878101 26.4268 0.913756 26.4103C0.964049 26.3871 1.0138 26.363 1.06326 26.338C1.15721 26.2906 1.25222 26.2455 1.34725 26.2003L1.50398 26.1257L1.95418 25.9105C2.00688 25.8853 2.05964 25.8602 2.11247 25.8353C2.17284 25.8068 2.233 25.7781 2.2926 25.7481C2.3887 25.6996 2.48607 25.6538 2.58343 25.6079L2.62079 25.5903C2.68922 25.5581 2.75756 25.5257 2.82512 25.4917C2.90244 25.4527 2.98061 25.4155 3.05879 25.3783L3.09315 25.3619C3.14553 25.3369 3.19783 25.3117 3.25014 25.2866C3.36902 25.2295 3.48816 25.1729 3.60748 25.1167C3.67691 25.084 3.74622 25.0512 3.81477 25.0166C3.92146 24.9628 4.02964 24.9121 4.13786 24.8614C4.21178 24.8269 4.28518 24.7916 4.35803 24.7548C4.41762 24.7248 4.47789 24.6963 4.53826 24.668C4.58473 24.6461 4.63077 24.6235 4.67655 24.6002C4.72799 24.5743 4.78008 24.5505 4.83285 24.5273C4.89695 24.4993 4.9598 24.4695 5.02219 24.4378C5.06946 24.4138 5.11716 24.391 5.1652 24.3686C5.21958 24.3432 5.2735 24.3172 5.32706 24.2901C5.39308 24.2568 5.45975 24.225 5.52669 24.1935C5.57316 24.1716 5.61919 24.1491 5.66497 24.1258C5.71642 24.0998 5.7685 24.076 5.82127 24.0529C5.90555 24.016 5.98764 23.9755 6.06961 23.9337C6.14992 23.893 6.2306 23.8536 6.31218 23.8156C6.36047 23.793 6.40817 23.7694 6.45571 23.7453C6.50731 23.7191 6.55938 23.695 6.61263 23.6724C6.67668 23.6451 6.73806 23.6141 6.79909 23.5807C6.84545 23.5554 6.89269 23.5331 6.94087 23.5115C6.98352 23.4922 7.02569 23.4719 7.06786 23.4516L7.07904 23.4463C7.14747 23.4134 7.21598 23.3808 7.28475 23.3487C7.34424 23.3208 7.40306 23.2919 7.46168 23.2623C7.52127 23.2323 7.58154 23.2038 7.64191 23.1754C7.68838 23.1535 7.73441 23.131 7.7802 23.1077C7.83164 23.0817 7.88372 23.0579 7.93649 23.0348C8.00055 23.0068 8.06336 22.977 8.1257 22.9453C8.17425 22.9207 8.22324 22.8972 8.27256 22.8742C8.31564 22.8541 8.35863 22.8339 8.40105 22.8124C8.44683 22.7892 8.49321 22.7674 8.53963 22.7455L8.54314 22.7439C8.59823 22.7179 8.65309 22.6916 8.70746 22.6642C8.78263 22.6263 8.85867 22.5902 8.93473 22.5542L8.95746 22.5434C9.00651 22.5201 9.05548 22.4967 9.10446 22.4732L9.12775 22.462C9.17438 22.4397 9.22102 22.4175 9.26773 22.3953C9.35218 22.3553 9.43632 22.3149 9.51975 22.2728C9.58768 22.2386 9.65644 22.2063 9.72521 22.1739L9.74142 22.1663C9.78154 22.1473 9.82159 22.1282 9.86163 22.1091L9.87009 22.1051C9.92131 22.0807 9.97254 22.0563 10.0239 22.0321C10.0924 21.9998 10.1608 21.9675 10.2284 21.9334C10.2867 21.904 10.3455 21.8756 10.4045 21.8475C10.489 21.8072 10.5734 21.7668 10.6577 21.7261L10.7115 21.7002C10.7814 21.6664 10.851 21.632 10.9202 21.5969C10.9536 21.5807 10.9874 21.566 11.0216 21.5516C11.0512 21.5381 11.0806 21.5241 11.1099 21.5102L11.1348 21.4984C11.1942 21.4702 11.2531 21.441 11.3118 21.4113C11.3617 21.3862 11.4123 21.3628 11.4632 21.3396C11.5 21.3224 11.5363 21.3043 11.5726 21.2859C11.6478 21.2481 11.7238 21.2121 11.8 21.1765L11.918 21.121L11.942 21.1096C11.9883 21.0877 12.0342 21.0651 12.0798 21.0419C12.1313 21.0159 12.1834 20.9921 12.2361 20.969C12.3139 20.935 12.3898 20.898 12.4654 20.8595C12.6763 20.7521 12.8905 20.6512 13.1046 20.5504L13.126 20.5403C13.195 20.5078 13.2639 20.4752 13.332 20.4408C13.4007 20.4062 13.47 20.373 13.5394 20.34C13.5929 20.3145 13.6463 20.2889 13.6996 20.2629L13.7337 20.2464L13.7992 20.2143L13.8292 20.1998L13.8557 20.1868C13.8658 20.1827 13.8714 20.1804 13.8772 20.1792C13.8842 20.1777 13.8915 20.1777 13.9078 20.1777C13.8884 20.1262 13.8676 20.0764 13.8423 20.0276C13.812 19.9683 13.7858 19.9077 13.7595 19.8466C13.7406 19.8025 13.7312 19.7805 13.7212 19.7587C13.7113 19.7369 13.7008 19.7154 13.6798 19.6723C13.62 19.5562 13.5712 19.4336 13.5253 19.3114C13.5092 19.2698 13.4917 19.2288 13.4742 19.1878L13.4735 19.1862C13.442 19.1122 13.4129 19.0377 13.3852 18.9622C13.3796 18.9462 13.3771 18.9391 13.3741 18.9323C13.3717 18.927 13.369 18.9218 13.3642 18.9125C13.2807 18.9474 13.1991 18.9842 13.1195 19.0274C13.064 19.0575 13.0085 19.0838 12.9498 19.1072C12.8962 19.1299 12.8444 19.1565 12.7926 19.1831L12.7612 19.1991C12.6554 19.2531 12.6239 19.2691 12.5916 19.2831C12.5779 19.289 12.5641 19.2945 12.5444 19.3023C12.4957 19.3219 12.4502 19.3453 12.4042 19.3703C12.3388 19.4057 12.2725 19.4369 12.2043 19.4665C12.1489 19.4907 12.0948 19.517 12.0408 19.5444C11.9894 19.5704 11.9374 19.5953 11.8852 19.6198C11.818 19.6515 11.7514 19.6841 11.685 19.7176C11.6573 19.7314 11.6293 19.7444 11.6011 19.757C11.5576 19.7764 11.515 19.7973 11.4726 19.8188C11.3843 19.8633 11.2951 19.9057 11.2057 19.9479L10.9919 20.0492L10.9484 20.0695C10.874 20.1043 10.8001 20.1399 10.7267 20.177C10.6671 20.2069 10.6068 20.2354 10.5465 20.2638C10.5 20.2857 10.454 20.3082 10.4082 20.3315C10.357 20.3574 10.3051 20.3809 10.2525 20.4038C10.1928 20.4298 10.1349 20.4579 10.0777 20.489C10.0136 20.5238 9.94846 20.5544 9.88158 20.5834C9.82561 20.6079 9.77101 20.6344 9.71657 20.662C9.6693 20.686 9.6216 20.7088 9.57357 20.7312C9.48095 20.7744 9.38962 20.82 9.29862 20.8666C9.2551 20.8887 9.21219 20.9099 9.16646 20.927C9.11922 20.9451 9.07559 20.9685 9.03117 20.9925C8.97436 21.0232 8.91774 21.0503 8.85769 21.0742C8.8 21.0985 8.74423 21.1273 8.68855 21.1561L8.65113 21.1753C8.55328 21.2253 8.45402 21.2719 8.35426 21.3179C8.27892 21.3527 8.20405 21.388 8.13008 21.4256C8.07758 21.4522 8.02436 21.4772 7.971 21.5021C7.92202 21.525 7.87357 21.5488 7.82529 21.5732C7.77502 21.5986 7.7245 21.6228 7.67309 21.6458C7.53305 21.7095 7.39407 21.7765 7.2578 21.848L7.2389 21.8577L7.18711 21.8848C7.15745 21.8973 7.13913 21.9004 7.10745 21.8975C7.06163 21.8133 7.0174 21.7301 6.98201 21.6408C6.96643 21.6048 6.94829 21.5706 6.92954 21.5361C6.90258 21.4866 6.87743 21.4369 6.85471 21.3853C6.84278 21.3588 6.83043 21.3326 6.8178 21.3065L6.80546 21.2809L6.78074 21.2299L6.76934 21.2063L6.759 21.185C6.75598 21.1773 6.7542 21.1727 6.75315 21.168C6.75162 21.1611 6.75162 21.154 6.75162 21.1364L6.7849 21.1209C6.83041 21.0997 6.85397 21.0887 6.87672 21.0778C6.89948 21.0669 6.92213 21.0558 6.96723 21.0336C7.01306 21.0103 7.06011 20.9882 7.10659 20.9663L7.10992 20.9647C7.16544 20.9385 7.2207 20.9121 7.27549 20.8844C7.33748 20.8531 7.40015 20.8234 7.46299 20.7938C7.50979 20.7718 7.55616 20.7491 7.60228 20.7256C7.65372 20.6996 7.70581 20.6758 7.75858 20.6527C7.82219 20.6249 7.88457 20.5953 7.94648 20.5639C7.99792 20.5378 8.04986 20.5129 8.10205 20.4884C8.16791 20.4574 8.23314 20.4255 8.29812 20.3927C8.34536 20.3693 8.39376 20.3467 8.44152 20.3243C8.47769 20.3074 8.51369 20.2903 8.54931 20.2722C8.59523 20.2489 8.64175 20.227 8.6883 20.2051L8.6914 20.2036C8.74649 20.1777 8.80135 20.1514 8.85572 20.1239C8.96241 20.0702 9.07059 20.0194 9.17881 19.9688C9.25466 19.9333 9.32992 19.8969 9.40469 19.8592C9.44828 19.8373 9.49227 19.8167 9.53681 19.7968C9.64438 19.7478 9.75098 19.6965 9.8565 19.6433C9.94306 19.5996 10.0307 19.5584 10.1185 19.5172L10.1221 19.5154C10.2194 19.4697 10.3163 19.4236 10.4122 19.3752C10.4564 19.3531 10.5011 19.3321 10.5458 19.3111L10.5666 19.3013C10.6134 19.2793 10.6598 19.2566 10.7059 19.2331C10.7574 19.2071 10.8094 19.1833 10.8622 19.1602C10.9258 19.1323 10.9882 19.1028 11.0502 19.0713C11.1012 19.0455 11.1527 19.0208 11.2045 18.9965C11.2695 18.9659 11.3339 18.9345 11.398 18.9021C11.4521 18.8749 11.5068 18.8491 11.5617 18.8236C11.6097 18.8011 11.657 18.7777 11.7042 18.7537C11.7558 18.7275 11.8079 18.7035 11.8611 18.6808C11.9169 18.6571 11.9704 18.6307 12.0236 18.6018C12.0881 18.5668 12.1536 18.536 12.2209 18.5067C12.2769 18.4823 12.3315 18.4558 12.3859 18.4282C12.4332 18.4042 12.4809 18.3814 12.5289 18.359C12.6216 18.3158 12.7129 18.2701 12.8039 18.2236C12.857 18.1966 12.9099 18.1722 12.9656 18.1509C12.9888 18.1414 13.0108 18.1307 13.033 18.1193C13.0557 18.108 13.0635 18.1041 13.0717 18.1027C13.0761 18.102 13.0806 18.102 13.0874 18.102C13.0709 18.0309 13.0513 17.9611 13.03 17.8913C12.9988 17.7894 12.972 17.6865 12.9456 17.5832C12.9373 17.5514 12.9287 17.5197 12.92 17.4879C12.866 17.2858 12.8203 17.0816 12.7775 16.8768C12.7719 16.8505 12.7662 16.8243 12.7604 16.798C12.7339 16.6781 12.714 16.5573 12.6943 16.4361C12.6853 16.381 12.6759 16.3261 12.6661 16.2712C12.6458 16.1569 12.6284 16.0425 12.613 15.9275L12.6082 15.8919C12.5887 15.7465 12.5702 15.6011 12.5576 15.4549C12.5554 15.4302 12.5525 15.4061 12.5488 15.3815C12.5421 15.3317 12.5386 15.2816 12.5351 15.2315L12.5339 15.2133L12.5289 15.144L12.5268 15.1132C12.5246 15.0847 12.522 15.0564 12.5192 15.028C12.513 14.9598 12.5098 14.8914 12.5067 14.823L12.5057 14.8021C12.4835 14.3226 12.4784 13.8465 12.4981 13.3668L12.499 13.3435C12.5057 13.1794 12.5133 13.016 12.5318 12.8528C12.536 12.8142 12.5388 12.7756 12.5416 12.7369L12.5432 12.7151C12.5603 12.4943 12.5868 12.2751 12.6182 12.0559L12.6309 11.9653C12.6462 11.8558 12.6632 11.7467 12.6822 11.6377L12.6886 11.6002C12.7247 11.3909 12.7365 11.3224 12.7505 11.2543C12.7573 11.2211 12.7646 11.188 12.7755 11.1389C12.782 11.1092 12.7883 11.0795 12.7945 11.0498C12.835 10.8575 12.8771 10.6656 12.931 10.4766C12.9463 10.4228 12.9599 10.3688 12.9731 10.3145C12.9957 10.2227 13.0221 10.1324 13.05 10.0421C13.0577 10.0169 13.0652 9.99178 13.0727 9.96659C13.1492 9.71083 13.2304 9.45599 13.3246 9.2062L13.3388 9.16805L13.4518 8.86745C13.483 8.78494 13.5168 8.70391 13.552 8.62303L13.6125 8.48094L13.6278 8.44484C13.6536 8.38458 13.6804 8.32559 13.7101 8.2672C13.7159 8.25309 13.7215 8.23889 13.7268 8.22457C13.7518 8.16073 13.7816 8.09902 13.8114 8.0373L13.8257 8.00751L13.8658 7.92306C13.9082 7.83347 13.9508 7.74431 13.9983 7.65724C14.0219 7.61376 14.0441 7.56968 14.0659 7.52526C14.0965 7.46326 14.1299 7.40363 14.1647 7.34387C14.1867 7.30527 14.2064 7.26555 14.2259 7.22565C14.2523 7.17207 14.2803 7.1211 14.313 7.07121C14.3497 7.01189 14.3841 6.95162 14.4173 6.89028C14.4382 6.85156 14.4596 6.81312 14.4811 6.77468H14.5008L14.5076 6.74935C14.5205 6.71569 14.5354 6.69345 14.5567 6.66503C14.5741 6.64048 14.5882 6.61448 14.6025 6.58813L14.6063 6.58116C14.6209 6.55465 14.6358 6.52838 14.651 6.50225L14.6656 6.47688L14.6788 6.45838H14.6985L14.7021 6.44075C14.7086 6.41837 14.7166 6.40378 14.7296 6.38464L14.7425 6.36557L14.756 6.34595L14.7691 6.32657L14.7949 6.28865C14.8145 6.26038 14.8243 6.24625 14.8332 6.23163C14.8422 6.21702 14.8503 6.20192 14.8666 6.17174H14.8863L14.8944 6.15012C14.9061 6.12234 14.9187 6.09777 14.9358 6.0729H14.9555L14.958 6.05684C14.9681 6.02473 14.9848 6.00087 15.0049 5.97406H15.0247L15.0268 5.95834C15.037 5.92708 15.0557 5.90272 15.0752 5.87712L15.0809 5.86966L15.1105 5.82996L15.1266 5.80863C15.1537 5.77236 15.1806 5.73588 15.2075 5.6994L15.215 5.68927L15.2329 5.66508C15.2693 5.61568 15.3048 5.56587 15.3387 5.51464L15.3509 5.49962H15.3707V5.46996C15.3819 5.45833 15.3933 5.44677 15.4051 5.43567C15.43 5.41053 15.4512 5.38213 15.4724 5.35376L15.4843 5.33776L15.501 5.31591C15.5265 5.2823 15.5516 5.2485 15.5759 5.21402C15.5977 5.1838 15.6211 5.1602 15.6474 5.1339C15.6803 5.09433 15.7129 5.0544 15.7425 5.01224L15.7561 4.99552H15.7759L15.7824 4.97981C15.7996 4.94889 15.8219 4.9234 15.845 4.89696L15.85 4.89112C15.8696 4.86857 15.8793 4.8573 15.8886 4.84564C15.8979 4.83398 15.9066 4.82193 15.9242 4.79784H15.9439L15.9521 4.78019C15.9636 4.75845 15.9757 4.74263 15.9921 4.72432L16.0104 4.70386L16.0631 4.64656L16.0792 4.62924L16.1111 4.59502C16.1333 4.57117 16.1532 4.54827 16.1713 4.52108H16.191L16.2108 4.48154H16.2306L16.238 4.46486C16.2612 4.42201 16.2933 4.38556 16.3294 4.35305H16.3492L16.3564 4.33611C16.3715 4.30887 16.3897 4.29026 16.4117 4.26819L16.4385 4.24122L16.4675 4.21235L16.4972 4.1826L16.5594 4.12049L16.7299 3.94989L16.7946 3.88534C16.8052 3.87612 16.81 3.87201 16.8154 3.87018C16.8198 3.86872 16.8247 3.86872 16.8335 3.86872V3.84895C16.8498 3.83549 16.8663 3.82237 16.8829 3.80942C16.9072 3.78578 16.9307 3.76172 16.954 3.73714C16.9638 3.72801 16.9682 3.72388 16.9735 3.72201C16.9778 3.72046 16.9827 3.72046 16.9917 3.72046L17.0016 3.6908H17.0213L17.0312 3.66115C17.048 3.64613 17.0654 3.63179 17.0831 3.61791C17.1128 3.59452 17.1404 3.57167 17.167 3.54463C17.1804 3.53153 17.1858 3.52628 17.1922 3.52418C17.1965 3.52277 17.2012 3.52277 17.2091 3.52277V3.503C17.2393 3.47599 17.2489 3.46743 17.2599 3.46472C17.265 3.46347 17.2704 3.46347 17.2783 3.46347L17.2882 3.43382H17.308V3.41405C17.3171 3.40564 17.3223 3.40089 17.3275 3.39642C17.334 3.39089 17.3406 3.38563 17.3555 3.37389L17.3823 3.35254C17.3943 3.34392 17.4005 3.33952 17.4071 3.33611C17.414 3.33259 17.4214 3.33012 17.4365 3.32509V3.30532C17.458 3.28668 17.466 3.27975 17.4752 3.27718C17.4806 3.27567 17.4864 3.27567 17.4958 3.27567L17.5056 3.24601C17.5162 3.23758 17.5219 3.233 17.5277 3.22862C17.5347 3.22341 17.5419 3.21849 17.5575 3.20771C17.5972 3.1804 17.6299 3.15161 17.6638 3.11752C17.6853 3.09932 17.7075 3.08212 17.7299 3.06501L17.7473 3.0514C17.7767 3.0288 17.7858 3.02181 17.7959 3.01965C17.8004 3.01868 17.8052 3.01868 17.8121 3.01868L17.8219 2.98903C17.844 2.97079 17.8661 2.95387 17.8893 2.93713L17.9322 2.90563L17.9555 2.8886C17.9818 2.86917 18.0078 2.84945 18.0339 2.82964L18.0609 2.80911L18.1138 2.76886L18.1382 2.75041L18.1599 2.73388C18.1692 2.7278 18.1736 2.72487 18.1785 2.72346C18.1831 2.72215 18.188 2.72215 18.1975 2.72215V2.70238H18.2272V2.68261C18.2439 2.66953 18.2614 2.65736 18.2791 2.64555L18.3148 2.62138L18.3347 2.60797C18.3636 2.58829 18.3922 2.56817 18.4207 2.54804L18.4244 2.54547C18.5937 2.42633 18.7642 2.3095 18.9393 2.19906C18.9684 2.1807 18.9829 2.17152 18.9972 2.162C19.0115 2.15248 19.0256 2.14263 19.0538 2.12292C19.0852 2.09996 19.1184 2.0815 19.1526 2.06292C19.2156 2.02829 19.2766 1.99013 19.3375 1.95202L19.3701 1.93168C19.4027 1.91208 19.4357 1.89358 19.469 1.87521C19.509 1.85296 19.5485 1.82985 19.5881 1.80673L19.6082 1.79495C19.704 1.73921 19.8017 1.68716 19.9001 1.63612C19.9652 1.6023 20.0301 1.56832 20.0947 1.53357C20.2821 1.43317 20.4744 1.34107 20.6691 1.25578C20.7151 1.23555 20.7601 1.21383 20.8049 1.19087C20.835 1.17618 20.8661 1.16413 20.8973 1.15199L20.9005 1.15075C20.9259 1.14053 20.9507 1.12936 20.9756 1.11782C21.1044 1.05862 21.2369 1.00752 21.3698 0.958167L21.431 0.935384C21.4703 0.920661 21.5091 0.905128 21.5477 0.888629C21.6143 0.860481 21.6824 0.836838 21.7508 0.813209L21.9202 0.754119C21.9773 0.734263 22.0345 0.714922 22.0919 0.695887C22.1209 0.686227 22.1499 0.676426 22.1788 0.666582C22.2819 0.631641 22.385 0.59846 22.4901 0.570211C22.5484 0.554523 22.6062 0.53745 22.6641 0.520378L22.6891 0.513008C22.8199 0.474584 22.9518 0.440891 23.0842 0.408188L23.158 0.389877C23.3391 0.344891 23.5204 0.303331 23.7034 0.266846L23.779 0.251445C23.833 0.240328 23.887 0.23034 23.9416 0.22214C23.9947 0.214079 24.0474 0.204555 24.1001 0.194256C24.2374 0.167514 24.3747 0.148296 24.5135 0.131445C24.567 0.124871 24.6201 0.116583 24.6732 0.107446C24.7195 0.0998676 24.766 0.0944791 24.8126 0.0892436L24.8455 0.085537L25.001 0.0684616C25.4759 0.0161495 25.9491 -0.00102204 26.4266 0.000179822ZM27.2019 7.15716C27.231 7.16182 27.2602 7.16511 27.2895 7.1684L27.3003 7.16962C27.3884 7.18026 27.4752 7.19748 27.5622 7.21477C27.5878 7.21971 27.6134 7.22422 27.6391 7.22869C27.7069 7.24093 27.7737 7.25669 27.8407 7.27247L27.862 7.27747C27.9555 7.29943 28.0486 7.32209 28.1411 7.34815L28.1866 7.36059C28.42 7.425 28.6479 7.50501 28.8725 7.59526L28.9035 7.60767C29.182 7.72022 29.45 7.85512 29.7127 8.00051C29.7127 8.04463 29.7035 8.05392 29.6752 8.08287L29.6723 8.08581L29.6541 8.10378L29.635 8.12311C29.6137 8.14455 29.5924 8.16585 29.571 8.18715L29.5254 8.23308C29.484 8.27473 29.4425 8.31625 29.4009 8.35774L29.2972 8.46166C29.211 8.54807 29.1247 8.63436 29.0383 8.72059C28.9633 8.79553 28.8884 8.87063 28.8136 8.94581C28.7368 9.02296 28.66 9.09999 28.583 9.17692C28.5397 9.22012 28.4965 9.26337 28.4534 9.30673C28.4129 9.34749 28.3723 9.38809 28.3315 9.4286L28.2868 9.47351C28.2666 9.49395 28.2462 9.5142 28.2257 9.53441L28.2078 9.55273C28.1911 9.56896 28.1911 9.56897 28.1608 9.59187C28.146 9.59139 28.1392 9.59117 28.1326 9.58967C28.1269 9.58838 28.1215 9.58615 28.1114 9.58199L28.0924 9.57458L28.0737 9.56573C27.8321 9.45517 27.575 9.37677 27.3177 9.31213C27.3004 9.30766 27.2832 9.30293 27.2661 9.2979C27.1879 9.27494 27.1087 9.26206 27.0283 9.24963L26.9584 9.23851C26.9079 9.23049 26.8573 9.22326 26.8067 9.21627L26.7774 9.21214C26.5909 9.18641 26.4071 9.18229 26.2192 9.18343C26.19 9.18356 26.1608 9.18351 26.1316 9.18346L26.1302 9.18346C25.9092 9.18318 25.6902 9.18959 25.4723 9.23048L25.4355 9.23714L25.3647 9.25013C25.3396 9.25477 25.3145 9.25923 25.2893 9.26353C25.0073 9.31309 24.7292 9.3926 24.4654 9.50401C24.4374 9.51573 24.4091 9.52679 24.3808 9.53785L24.369 9.54245C24.2066 9.60783 24.0534 9.68396 23.9007 9.76979L23.8732 9.7851C23.7605 9.84794 23.6507 9.91324 23.5449 9.98724L23.5279 9.99903C23.3556 10.119 23.1911 10.2484 23.036 10.3899C23.0223 10.4022 23.0085 10.4145 22.9945 10.4265C22.9395 10.4736 22.8881 10.5239 22.837 10.5752L22.7941 10.618C22.7425 10.6697 22.6928 10.7223 22.6454 10.778L22.6169 10.8104C22.5482 10.8891 22.4844 10.9707 22.4226 11.0549C22.4087 11.0739 22.3946 11.0927 22.3804 11.1116C22.3128 11.2019 22.251 11.2954 22.1908 11.3908L22.164 11.4328L22.1383 11.4736L22.1267 11.4917C21.9935 11.7044 21.8865 11.9382 21.7954 12.1716L21.7856 12.1966C21.6826 12.4628 21.5947 12.7442 21.5522 13.027C21.5475 13.0562 21.5422 13.0853 21.5369 13.1144L21.5363 13.1176C21.4395 13.6558 21.4577 14.2137 21.5483 14.7514L21.5539 14.7854C21.5589 14.8151 21.5641 14.8447 21.5693 14.8744L21.5737 14.8995C21.5826 14.9478 21.5947 14.9942 21.6093 15.0411C21.6182 15.0702 21.6264 15.0995 21.6346 15.1289C21.679 15.2887 21.729 15.4455 21.7855 15.6015L21.7931 15.6227C21.8418 15.7575 21.9065 15.8858 21.9715 16.0134L21.9962 16.0622C22.1266 16.3203 22.2818 16.5584 22.4576 16.7876L22.4715 16.8057C22.6379 17.0222 22.8224 17.2372 23.0314 17.4136C23.0597 17.4378 23.0869 17.4631 23.1142 17.4885C23.1194 17.4933 23.1245 17.4981 23.1297 17.5029C23.1607 17.53 23.1926 17.5552 23.2252 17.5802C23.2472 17.5972 23.269 17.6144 23.2908 17.6316C23.376 17.699 23.4621 17.7633 23.5536 17.8218C23.5765 17.8365 23.5992 17.8515 23.6219 17.8664L23.6238 17.8676C23.8369 18.0066 24.0626 18.1292 24.2961 18.2307L24.3163 18.2395C24.4194 18.2843 24.5231 18.3255 24.6297 18.3615L24.6588 18.3715L24.7002 18.386C24.8214 18.4281 24.9437 18.4611 25.0684 18.4907C25.0981 18.4979 25.1277 18.5054 25.1573 18.5129C25.7614 18.6642 26.4126 18.6633 27.0241 18.5569L27.0692 18.5495C27.1454 18.5366 27.2192 18.5179 27.2933 18.4966C27.3355 18.4844 27.3776 18.4736 27.4204 18.4642C27.651 18.4139 27.8749 18.3231 28.0916 18.2307L28.1148 18.2208C28.2501 18.1629 28.3786 18.0952 28.5068 18.0231L28.5447 18.0021C28.8255 17.8449 29.0926 17.654 29.3291 17.4355C29.3437 17.4223 29.3582 17.4091 29.3732 17.3964C29.4344 17.3441 29.4911 17.2874 29.5479 17.2304L29.5993 17.179C29.6557 17.1227 29.7107 17.066 29.7621 17.005L29.7881 16.9751C29.9677 16.7654 30.1237 16.5395 30.2662 16.3033L30.2817 16.2778C30.3112 16.2294 30.3385 16.1807 30.3632 16.1297C30.3877 16.0795 30.4132 16.0299 30.4398 15.9808C30.4729 15.9197 30.5023 15.8604 30.5244 15.7943C30.5334 15.7685 30.5442 15.7442 30.5559 15.7195C30.5917 15.6421 30.622 15.5627 30.6517 15.4829L30.6591 15.4629C30.6984 15.3555 30.7279 15.2454 30.7573 15.1351L30.7631 15.1135C30.7864 15.0259 30.8069 14.9383 30.8236 14.8491C30.827 14.833 30.8285 14.8259 30.8309 14.8193C30.8328 14.8143 30.8352 14.8094 30.8395 14.8009C30.8427 14.7797 30.8455 14.7585 30.8481 14.7372C30.8544 14.6875 30.8615 14.6382 30.8699 14.5888C30.8884 14.4794 30.8977 14.3703 30.9049 14.2597L30.9086 14.2075L30.9284 13.9113C30.7359 14.0017 30.5457 14.097 30.3555 14.1922L28.7955 14.9729C28.7476 14.9969 28.6993 15.0199 28.6507 15.0424C28.5826 15.0743 28.5158 15.1082 28.4494 15.1438C28.3385 15.2032 28.2254 15.2579 28.1114 15.3113C28.0563 15.3373 28.0025 15.3652 27.9489 15.3944C27.8965 15.4228 27.8427 15.448 27.7885 15.473C27.7421 15.4946 27.6968 15.5177 27.6518 15.5422C27.593 15.5742 27.5331 15.603 27.4723 15.6311C27.4258 15.6527 27.3805 15.6758 27.3355 15.7003C27.2836 15.7286 27.231 15.7546 27.1774 15.7794C27.1241 15.804 27.0719 15.8298 27.0204 15.8578C26.9651 15.888 26.9089 15.9157 26.8518 15.9425C26.7465 15.9918 26.6423 16.0427 26.5399 16.0977C26.4577 16.1418 26.3743 16.1829 26.29 16.2226C26.2371 16.2476 26.1845 16.2731 26.1323 16.2994L26.1115 16.3098C26.0376 16.3468 25.9637 16.384 25.8899 16.4212C25.7066 16.5135 25.5232 16.6057 25.3398 16.6978C25.2339 16.7509 25.1281 16.8041 25.0224 16.8574C24.9297 16.9041 24.837 16.9507 24.7443 16.9972C24.6953 17.0217 24.6463 17.0463 24.5974 17.0711C24.5515 17.0943 24.5056 17.1173 24.4596 17.1403L24.4091 17.1658C24.3861 17.1774 24.3631 17.1889 24.3401 17.2003L24.3199 17.2107C24.2782 17.2311 24.2519 17.2352 24.2071 17.2225C24.1961 17.2178 24.1907 17.2155 24.1853 17.2129C24.18 17.2104 24.1749 17.2075 24.1647 17.2019L24.1412 17.189L24.1163 17.1749L24.0901 17.1602C23.8104 17.0021 23.5511 16.8124 23.3149 16.5947C23.3008 16.5818 23.2866 16.569 23.272 16.5566C23.2104 16.5042 23.1535 16.4471 23.0964 16.3898L23.0884 16.3818L23.0327 16.3261C22.974 16.2675 22.9163 16.2087 22.8629 16.1451L22.8347 16.1127C22.5704 15.8066 22.5405 15.772 22.5371 15.7349C22.5367 15.7302 22.5367 15.7255 22.5367 15.7201L25.3362 14.3202C25.3826 14.297 25.4295 14.2747 25.4767 14.2529C25.5448 14.221 25.6116 14.1871 25.6779 14.1515C25.7889 14.0921 25.902 14.0374 26.0159 13.984C26.0711 13.958 26.1249 13.9301 26.1784 13.9009C26.2309 13.8725 26.2847 13.8473 26.3388 13.8223C26.3853 13.8007 26.4306 13.7776 26.4756 13.7531C26.5344 13.7211 26.5943 13.6923 26.6551 13.6642C26.7016 13.6425 26.7469 13.6195 26.7919 13.595C26.8434 13.5669 26.8955 13.5411 26.9488 13.5165C27.0062 13.49 27.0624 13.4619 27.118 13.4319C27.1806 13.3982 27.244 13.3673 27.3085 13.3375C27.3609 13.3131 27.4117 13.2865 27.4624 13.2589C27.5152 13.2304 27.5693 13.205 27.6238 13.1798C27.6702 13.1582 27.7155 13.1352 27.7605 13.1107C27.8194 13.0786 27.8793 13.0498 27.9401 13.0217C27.9865 13.0001 28.0318 12.977 28.0768 12.9525C28.1356 12.9205 28.1956 12.8916 28.2564 12.8635C28.3028 12.8419 28.3481 12.8189 28.3931 12.7944C28.445 12.7661 28.4976 12.7401 28.5513 12.7153C28.6037 12.6911 28.655 12.6657 28.7057 12.6381C28.7685 12.6038 28.8326 12.5729 28.8972 12.5423C28.9606 12.5123 29.0234 12.482 29.085 12.4484C29.1552 12.4102 29.227 12.3758 29.2993 12.3417C29.3513 12.3172 29.403 12.2921 29.4544 12.2663L32.0855 10.9505C32.1422 10.9222 32.1995 10.8952 32.257 10.8685C32.2925 10.8519 32.3271 10.8348 32.361 10.8149C32.3801 10.8041 32.3871 10.8001 32.3947 10.7986C32.3991 10.7977 32.4037 10.7977 32.411 10.7977L32.4964 10.967C32.5472 11.0674 32.5943 11.1687 32.6384 11.2722L32.6505 11.3003C32.6862 11.3826 32.7213 11.4645 32.7473 11.5506C32.7552 11.5735 32.7641 11.5943 32.7743 11.6162C32.8028 11.6794 32.8245 11.745 32.8463 11.8107L32.8527 11.83L32.8606 11.8535C32.9398 12.0921 33.0032 12.3338 33.0488 12.5811C33.0582 12.6315 33.0684 12.6818 33.0788 12.732C33.1144 12.9025 33.1395 13.0734 33.1578 13.2465C33.1606 13.2735 33.1636 13.3004 33.1668 13.3273C33.194 13.5605 33.1945 13.7936 33.1944 14.028L33.1944 14.0524C33.1943 14.0994 33.1942 14.1464 33.194 14.1934L33.1938 14.2369C33.1936 14.307 33.1925 14.3756 33.182 14.445C33.1811 14.4586 33.1803 14.4723 33.1799 14.4859L33.1783 14.5309C33.1708 14.7022 33.1576 14.8762 33.1202 15.0438C33.1118 15.0825 33.1054 15.1213 33.0992 15.1604C33.0408 15.518 32.9457 15.866 32.8339 16.2103L32.8133 16.2743C32.7842 16.3637 32.7509 16.4512 32.7162 16.5385L32.6914 16.6017C32.6664 16.6653 32.6401 16.727 32.6087 16.7876C32.6053 16.7955 32.6018 16.8035 32.5984 16.8114C32.5947 16.8201 32.5909 16.8288 32.5873 16.8376C32.4944 17.0554 32.382 17.2652 32.2628 17.4696L32.2408 17.5078C32.1866 17.6014 32.1294 17.6923 32.069 17.7821L32.0276 17.8439C31.9193 18.006 31.8053 18.1631 31.6811 18.3135C31.6605 18.3386 31.6404 18.364 31.6203 18.3894C31.5866 18.4318 31.5508 18.4718 31.5143 18.5118C31.4916 18.5373 31.4704 18.5635 31.4492 18.5902C31.4111 18.6374 31.3699 18.6799 31.3267 18.7223C31.3005 18.748 31.2752 18.774 31.2515 18.8021C31.1783 18.8879 31.0957 18.9692 31.0095 19.0419C30.9841 19.0641 30.9596 19.0873 30.935 19.1105C30.8774 19.1648 30.8194 19.2173 30.7575 19.2667C30.7337 19.2859 30.7106 19.3056 30.6875 19.3256C30.6043 19.3975 30.5163 19.4627 30.4279 19.528C30.4142 19.5381 30.4006 19.5483 30.3871 19.5584C30.3805 19.5634 30.3739 19.5684 30.3673 19.5733C30.2052 19.6949 30.0345 19.8065 29.8609 19.911L29.8358 19.9262C29.3971 20.19 28.9269 20.4063 28.4396 20.563C28.4096 20.5727 28.3796 20.5825 28.3497 20.5924C28.2319 20.631 28.1134 20.6632 27.9928 20.6918L27.9267 20.7079L27.9019 20.7139C27.8782 20.7204 27.8556 20.728 27.8325 20.7362C27.7849 20.7523 27.7379 20.7597 27.6882 20.766C27.635 20.7728 27.5837 20.7813 27.5318 20.7952C27.4602 20.8138 27.3878 20.8224 27.3146 20.8311L27.3114 20.8315L27.2498 20.839L27.1944 20.8457C27.1752 20.8483 27.156 20.8513 27.1369 20.8552C27.111 20.8603 27.0857 20.8626 27.0594 20.8645L27.0275 20.8668L26.9945 20.8691L26.8952 20.8763C26.8677 20.8787 26.8405 20.8814 26.8131 20.8846C26.6608 20.902 26.5088 20.9028 26.3557 20.9025C26.3259 20.9025 26.2961 20.9026 26.2662 20.9027C26.061 20.904 25.8591 20.8943 25.6549 20.8733C25.6157 20.8693 25.5765 20.8656 25.5372 20.862C25.5157 20.8599 25.4943 20.8577 25.4729 20.8554C25.4562 20.8537 25.4396 20.8518 25.4229 20.85L25.3984 20.8474C25.1605 20.8215 24.9252 20.7718 24.6921 20.7184L24.6604 20.7112C24.6118 20.6997 24.5963 20.6961 24.5814 20.6909C24.5745 20.6885 24.5677 20.6858 24.5577 20.6818C24.5351 20.6728 24.5142 20.667 24.4905 20.6622C24.26 20.6132 24.0321 20.532 23.8146 20.4422C23.7761 20.4263 23.7374 20.4121 23.6981 20.3984C23.6112 20.3679 23.5275 20.3331 23.4457 20.291C23.4145 20.2758 23.3829 20.2619 23.3511 20.2481C23.2866 20.22 23.225 20.1916 23.1654 20.1537C23.1322 20.1339 23.0978 20.117 23.0631 20.1L23.0618 20.0994C23.0044 20.0712 22.9487 20.0413 22.8939 20.0082C22.8669 19.9924 22.8397 19.9775 22.8121 19.9627C22.7536 19.9309 22.6969 19.8964 22.6405 19.861L22.6093 19.8414C22.4028 19.7111 22.2031 19.5698 22.0129 19.4168L21.9931 19.401C21.92 19.3424 21.8479 19.2834 21.7789 19.2199C21.7552 19.1988 21.7307 19.1793 21.7058 19.1598C21.6465 19.1119 21.5935 19.0581 21.5403 19.0037C21.5073 18.97 21.4741 18.9375 21.4382 18.9069C21.3958 18.8705 21.3602 18.8294 21.3249 18.7861C21.3213 18.7817 21.3184 18.7783 21.3159 18.7754C21.3139 18.7731 21.3122 18.7712 21.3103 18.7693C21.3043 18.7632 21.2976 18.7578 21.2814 18.7447C21.2316 18.7462 21.1902 18.7676 21.1472 18.7899L21.1354 18.796L21.1102 18.8087L21.0306 18.8491L20.8755 18.9275C20.776 18.9779 20.6765 19.0282 20.5753 19.0752C20.4924 19.114 20.4115 19.1563 20.3308 19.1996C20.3054 19.2132 20.2798 19.2264 20.2541 19.2395L20.2316 19.2509C20.2229 19.2547 20.2184 19.2567 20.2138 19.2576C20.2091 19.2586 20.2042 19.2586 20.1942 19.2586L19.817 18.5043L19.7799 18.4306C19.744 18.3592 19.7091 18.2876 19.6752 18.2152C19.6456 18.152 19.6143 18.09 19.5808 18.0287C19.5524 17.9762 19.5273 17.9224 19.5022 17.8682C19.4779 17.816 19.4515 17.7654 19.4239 17.7149C19.3924 17.6566 19.3643 17.5968 19.3365 17.5366C19.3146 17.4894 19.2907 17.4439 19.2645 17.3988C19.2597 17.3896 19.2574 17.385 19.2563 17.3802C19.2552 17.3755 19.2552 17.3706 19.2552 17.3609C19.3495 17.3098 19.4444 17.2611 19.5416 17.2156C19.6552 17.1623 19.7668 17.1054 19.8775 17.0462C19.9326 17.0169 19.9885 16.9901 20.0459 16.9655C20.04 16.931 20.031 16.902 20.0162 16.8703L20.004 16.844L19.9909 16.816C19.9195 16.661 19.8537 16.5057 19.7993 16.3439L19.7697 16.257C19.6981 16.0472 19.6301 15.8369 19.5841 15.6197C19.5745 15.5745 19.5628 15.5307 19.5487 15.4866C19.5296 15.4215 19.5186 15.3535 19.5078 15.2861C19.5059 15.2746 19.5041 15.263 19.5022 15.2516C19.501 15.244 19.4997 15.2364 19.4984 15.2289C19.4899 15.1791 19.4811 15.1293 19.4718 15.0796C19.4473 14.9474 19.4324 14.8163 19.4232 14.6822L19.4206 14.6459C19.4171 14.5955 19.4136 14.5451 19.4103 14.4946L19.408 14.46L19.406 14.4295C19.404 14.4026 19.4013 14.3759 19.3983 14.3491C19.3928 14.2947 19.3918 14.2406 19.3915 14.186L19.3913 14.1542L19.3911 14.0515L19.391 14.0159C19.3911 13.6932 19.4109 13.3714 19.4528 13.0513L19.4565 13.0224C19.4686 12.9293 19.4822 12.8378 19.5049 12.7466C19.513 12.7118 19.5187 12.677 19.5245 12.6418C19.5783 12.3247 19.6679 12.0085 19.779 11.7071L19.7895 11.6783C19.8411 11.5365 19.8971 11.3968 19.9561 11.258C19.9653 11.2362 19.9744 11.2144 19.9835 11.1926C20.0201 11.105 20.0619 11.0205 20.1052 10.9361L20.1204 10.9064C20.2473 10.6575 20.383 10.4161 20.5401 10.1849L20.5543 10.164C20.7333 9.89918 20.9261 9.64467 21.1413 9.40801C21.1559 9.39188 21.1705 9.37566 21.185 9.35936C21.2292 9.3096 21.2747 9.2618 21.3225 9.21538C21.3314 9.2066 21.3364 9.20177 21.3408 9.19647C21.3461 9.18999 21.3506 9.18281 21.3605 9.16685H21.3803L21.3869 9.15013C21.4032 9.12188 21.4237 9.10387 21.4477 9.08279L21.4525 9.07851C21.4978 9.03815 21.5411 8.99644 21.5835 8.9531C21.6295 8.90634 21.6773 8.86401 21.7288 8.82322C21.7581 8.79928 21.7857 8.77387 21.8133 8.748C21.8707 8.69458 21.9313 8.64636 21.9935 8.59863C22.0142 8.58264 22.0348 8.56646 22.0553 8.55024C22.2103 8.42809 22.3715 8.31592 22.5367 8.20808L22.5587 8.19373C22.8847 7.98198 23.2473 7.76691 23.6148 7.63577C23.642 7.62556 23.668 7.6141 23.6943 7.60174C23.7519 7.57531 23.8104 7.55244 23.8698 7.53039L23.9014 7.51861C23.9635 7.49566 24.0255 7.47422 24.089 7.45568C24.1215 7.44601 24.1534 7.43512 24.1855 7.42414C24.384 7.35735 24.5863 7.30578 24.7903 7.25919L24.821 7.25217C24.9939 7.21316 25.1685 7.18567 25.3438 7.16035L25.3753 7.1558C25.4332 7.1476 25.4911 7.1405 25.5491 7.13422C25.5709 7.13182 25.5926 7.12928 25.6144 7.1266C26.1293 7.06438 26.6907 7.06962 27.2019 7.15716ZM17.8516 15.8188L17.8594 15.8353L17.86 15.8367C17.8915 15.9033 17.9074 15.9368 17.9235 15.9702C17.9398 16.0038 17.9563 16.0373 17.9894 16.1042C18.0666 16.2573 18.1403 16.4121 18.2074 16.57L18.1762 16.5845C18.1051 16.6177 18.0341 16.6513 17.964 16.6867C17.8921 16.723 17.8195 16.7579 17.7468 16.7925C17.6684 16.8299 17.5901 16.8676 17.5118 16.9054C17.4125 16.9534 17.3131 17.0013 17.2136 17.049C17.1588 17.0752 17.1041 17.1016 17.0494 17.1282C16.926 17.1881 16.8022 17.247 16.6773 17.3037C16.616 17.3316 16.5555 17.3607 16.4955 17.3912C16.4455 17.4166 16.395 17.4407 16.3443 17.4645C16.2871 17.4914 16.2302 17.5188 16.1737 17.5473C16.1022 17.5834 16.0301 17.618 15.9578 17.6524C15.8793 17.6898 15.801 17.7275 15.7228 17.7654C15.6235 17.8133 15.5241 17.8612 15.4246 17.9089C15.3452 17.947 15.2659 17.9853 15.1866 18.0236C15.0923 18.0691 14.998 18.1145 14.9035 18.1595C14.8211 18.1989 14.7389 18.2386 14.6566 18.2783C14.5735 18.3185 14.4902 18.3586 14.4069 18.3986C14.324 18.4383 14.2412 18.4782 14.1584 18.5182L13.9641 18.612C13.8365 18.6737 13.7084 18.7344 13.5793 18.793C13.5252 18.8177 13.4733 18.8434 13.4228 18.875C13.4134 18.8789 13.4086 18.8809 13.4036 18.8817C13.3985 18.8825 13.3932 18.8821 13.3824 18.8812C13.3756 18.8782 13.3713 18.8762 13.3678 18.8733C13.362 18.8685 13.3584 18.861 13.3486 18.841C13.3433 18.8262 13.3382 18.8113 13.3333 18.7964L13.3246 18.7715L13.3055 18.7159C13.2943 18.6832 13.2828 18.6506 13.2713 18.618C13.1631 18.3101 13.1381 18.2387 13.1217 18.1655C13.1167 18.1434 13.1126 18.1211 13.1072 18.0921C13.194 18.0482 13.2812 18.0053 13.3691 17.9637C13.43 17.9348 13.4906 17.9057 13.5507 17.8753C13.6343 17.8331 13.7189 17.7929 13.8034 17.7526L13.8282 17.7408L14.009 17.6542C14.0829 17.6187 14.1567 17.5831 14.2305 17.5474L14.4244 17.4538C14.5435 17.3963 14.663 17.3396 14.7832 17.2841C14.8623 17.2476 14.941 17.2106 15.0187 17.1711C15.0685 17.1459 15.1188 17.1219 15.1693 17.0982C15.2227 17.073 15.2759 17.0476 15.3286 17.0209C15.3965 16.9867 15.4651 16.954 15.5337 16.9212C15.6125 16.8837 15.6912 16.8458 15.7697 16.8078C15.859 16.7647 15.9484 16.7216 16.0378 16.6787C16.1208 16.6389 16.2036 16.5991 16.2864 16.5591L16.4806 16.4653C16.6072 16.4041 16.7343 16.3442 16.8621 16.2856C16.9266 16.2559 16.9906 16.2253 17.0539 16.1931C17.1036 16.1679 17.1538 16.1439 17.2042 16.1202C17.2614 16.0933 17.3183 16.066 17.3747 16.0375C17.468 15.9904 17.5624 15.9455 17.6569 15.9006L17.7079 15.8764L17.8055 15.8301C17.821 15.8234 17.8274 15.8207 17.834 15.8196C17.8387 15.8188 17.8435 15.8188 17.8516 15.8188ZM20.4215 19.5748C20.4278 19.5851 20.4313 19.5909 20.4345 19.5968C20.4386 19.6042 20.4422 19.6119 20.4505 19.6294L20.4673 19.6645L20.4851 19.7027L20.5037 19.7417C20.5491 19.8374 20.5934 19.9336 20.6375 20.03C20.6684 20.0974 20.7004 20.1641 20.7346 20.2299C20.7493 20.2585 20.7603 20.2848 20.7674 20.3161L20.7362 20.3306L20.6933 20.3507L20.673 20.3601C20.6164 20.3866 20.5605 20.4145 20.5046 20.4426C20.4273 20.4813 20.3497 20.5192 20.272 20.557L20.2493 20.5681C20.1497 20.6165 20.0498 20.6637 19.9488 20.7089C19.8911 20.7348 19.8344 20.7622 19.778 20.7909C19.7277 20.8164 19.6769 20.8407 19.6258 20.8647C19.5686 20.8916 19.5117 20.919 19.4553 20.9475C19.3838 20.9835 19.3116 21.0182 19.2393 21.0526C19.1609 21.09 19.0826 21.1277 19.0043 21.1655C18.8639 21.2334 18.7233 21.3009 18.5826 21.3684C18.4563 21.4289 18.3301 21.4897 18.2039 21.5506C18.1111 21.5954 18.0182 21.6401 17.9253 21.6847C17.8463 21.7226 17.7674 21.7606 17.6885 21.7987C17.5896 21.8465 17.4906 21.8942 17.3915 21.9417C17.3186 21.9766 17.2458 22.0117 17.1731 22.0469L16.9788 22.1407C16.8523 22.2019 16.7252 22.2618 16.5974 22.3204C16.5328 22.3501 16.4689 22.3807 16.4055 22.4129C16.3559 22.4381 16.3057 22.462 16.2553 22.4857C16.1981 22.5126 16.1412 22.54 16.0848 22.5685C15.9396 22.6417 15.7923 22.7107 15.645 22.7797L15.6079 22.797C15.5368 22.7151 15.4696 22.631 15.4041 22.5445C15.3761 22.5075 15.3475 22.4709 15.3189 22.4343C15.2647 22.3652 15.2116 22.2954 15.16 22.2244L15.1433 22.2015L15.128 22.1802L15.1145 22.1616C15.1103 22.1549 15.1078 22.1509 15.1056 22.1467C15.1023 22.1401 15.0999 22.1331 15.0939 22.115C15.1787 22.068 15.2643 22.0252 15.3532 21.9865C15.409 21.9621 15.4635 21.9358 15.5178 21.9082C15.5692 21.8821 15.6212 21.8572 15.6734 21.8327C15.7268 21.8076 15.78 21.7821 15.8327 21.7555C15.9006 21.7213 15.9692 21.6885 16.0379 21.6558C16.0924 21.6298 16.1468 21.6037 16.2011 21.5773C16.3293 21.5152 16.4578 21.454 16.5873 21.3947C16.6512 21.3653 16.7145 21.3351 16.7772 21.3032C16.8268 21.278 16.877 21.2541 16.9274 21.2304C16.9846 21.2035 17.0415 21.1761 17.0979 21.1476C17.1825 21.1049 17.268 21.0642 17.3535 21.0235L17.3766 21.0125L17.5574 20.9259C17.6435 20.8845 17.7295 20.843 17.8155 20.8015C17.9084 20.7566 18.0013 20.7119 18.0942 20.6674C18.1732 20.6295 18.2521 20.5914 18.331 20.5533C18.4509 20.4954 18.571 20.4376 18.6912 20.38L19.031 20.2169C19.1204 20.174 19.2097 20.1311 19.2992 20.0884C19.4007 20.0399 19.5021 19.9911 19.6035 19.9421C19.6966 19.8971 19.7897 19.8523 19.883 19.8076C19.9391 19.7807 19.9952 19.7536 20.0513 19.7265L20.1627 19.6726L20.23 19.6402C20.2531 19.6291 20.2763 19.6179 20.2993 19.6066L20.3342 19.5898L20.3656 19.5746C20.3781 19.57 20.3846 19.5676 20.3912 19.5674C20.3985 19.5671 20.4059 19.5696 20.4215 19.5748ZM17.6904 18.4511L17.6539 18.3788C17.6441 18.3788 17.6391 18.3788 17.6344 18.3798C17.6297 18.3809 17.6252 18.383 17.6161 18.3872C17.6015 18.3949 17.5868 18.4023 17.572 18.4095L17.5178 18.4354C17.4189 18.4829 17.3199 18.5304 17.2211 18.5782C17.1299 18.6223 17.0386 18.6663 16.9472 18.7099C16.8614 18.7509 16.7758 18.7921 16.6902 18.8335C16.6115 18.8715 16.5328 18.9094 16.4539 18.947C16.3816 18.9815 16.3095 19.0161 16.238 19.0522C16.1816 19.0806 16.1247 19.108 16.0675 19.1349C16.0174 19.1585 15.9676 19.1822 15.9182 19.2072C15.846 19.244 15.773 19.2785 15.6994 19.3125C15.5156 19.3975 15.3332 19.4851 15.1508 19.5732C15.0777 19.6085 15.0045 19.6438 14.9312 19.679C14.8322 19.7265 14.7332 19.7741 14.6343 19.8219C14.564 19.8558 14.4938 19.8898 14.4234 19.9234C14.3228 19.9716 14.2223 20.0198 14.1227 20.0701C14.0881 20.0876 14.0533 20.105 14.0186 20.1223L13.9276 20.1678L13.9417 20.1982C13.998 20.3195 14.0545 20.4411 14.1215 20.557C14.1421 20.5922 14.1621 20.6274 14.1813 20.6633L14.2371 20.7689L14.2554 20.8042L14.2728 20.8371C14.2814 20.8536 14.2853 20.861 14.2895 20.8681C14.2929 20.8738 14.2966 20.8794 14.3032 20.8894C14.3173 20.8941 14.3254 20.8968 14.3335 20.8967C14.3442 20.8966 14.355 20.8915 14.3801 20.8796L14.3989 20.8702C14.4521 20.8446 14.5049 20.8183 14.5577 20.7918C14.6158 20.7625 14.6743 20.7342 14.7331 20.7065C14.7835 20.6828 14.8337 20.6589 14.8834 20.6337C14.9467 20.6015 15.0107 20.5709 15.0752 20.5412C15.203 20.4826 15.33 20.4227 15.4566 20.3616L15.6521 20.2671C15.7243 20.2322 15.7965 20.1975 15.8688 20.163C15.9411 20.1286 16.0133 20.0939 16.0848 20.0579C16.1412 20.0294 16.1981 20.002 16.2553 19.9751C16.3057 19.9514 16.3559 19.9275 16.4055 19.9023C16.4689 19.8701 16.5328 19.8395 16.5974 19.8098C16.7252 19.7512 16.8522 19.6913 16.9787 19.6301L17.1743 19.5357C17.2464 19.5008 17.3186 19.4661 17.391 19.4316C17.4637 19.3969 17.5363 19.3621 17.6082 19.3258C17.6609 19.2992 17.714 19.2736 17.7676 19.2486C17.8491 19.2106 17.9295 19.1706 18.0097 19.13C17.9582 19.0099 17.9023 18.8921 17.845 18.7747L17.8431 18.7708C17.8134 18.7099 17.7837 18.6491 17.7558 18.5874C17.7382 18.5482 17.7198 18.5095 17.7005 18.4712L17.6904 18.4511Z" fill="#17A068"/>
<path d="M63.616 11.316C63.408 10.98 63.112 10.724 62.728 10.548C62.344 10.356 61.88 10.26 61.336 10.26C60.312 10.26 59.52 10.596 58.96 11.268C58.4 11.924 58.12 12.828 58.12 13.98C58.12 15.308 58.432 16.3 59.056 16.956C59.68 17.612 60.64 17.94 61.936 17.94C63.168 17.94 64.16 17.444 64.912 16.452H60.664V12.684H69.328V18.012C68.592 19.276 67.576 20.364 66.28 21.276C64.984 22.172 63.344 22.62 61.36 22.62C59.6 22.62 58.064 22.26 56.752 21.54C55.456 20.804 54.456 19.78 53.752 18.468C53.064 17.156 52.72 15.66 52.72 13.98C52.72 12.3 53.064 10.804 53.752 9.492C54.456 8.18 55.456 7.164 56.752 6.444C58.048 5.708 59.568 5.34 61.312 5.34C63.536 5.34 65.344 5.876 66.736 6.948C68.144 8.02 68.976 9.476 69.232 11.316H63.616ZM76.5749 11.46C77.1189 10.676 77.7829 10.052 78.5669 9.588C79.3509 9.108 80.1669 8.868 81.0149 8.868V14.556H79.5029C78.4949 14.556 77.7509 14.732 77.2709 15.084C76.8069 15.436 76.5749 16.06 76.5749 16.956V22.5H71.2469V8.964H76.5749V11.46ZM95.554 15.612C95.554 15.98 95.53 16.332 95.482 16.668H86.914C86.994 17.836 87.482 18.42 88.378 18.42C88.954 18.42 89.37 18.156 89.626 17.628H95.266C95.074 18.588 94.666 19.452 94.042 20.22C93.434 20.972 92.658 21.572 91.714 22.02C90.786 22.452 89.762 22.668 88.642 22.668C87.298 22.668 86.098 22.388 85.042 21.828C84.002 21.268 83.186 20.468 82.594 19.428C82.018 18.372 81.73 17.14 81.73 15.732C81.73 14.324 82.018 13.1 82.594 12.06C83.186 11.004 84.002 10.196 85.042 9.636C86.098 9.076 87.298 8.796 88.642 8.796C89.986 8.796 91.178 9.076 92.218 9.636C93.274 10.18 94.09 10.964 94.666 11.988C95.258 13.012 95.554 14.22 95.554 15.612ZM90.154 14.34C90.154 13.892 90.01 13.556 89.722 13.332C89.434 13.092 89.074 12.972 88.642 12.972C87.698 12.972 87.146 13.428 86.986 14.34H90.154ZM110.343 15.612C110.343 15.98 110.319 16.332 110.271 16.668H101.703C101.783 17.836 102.271 18.42 103.167 18.42C103.743 18.42 104.159 18.156 104.415 17.628H110.055C109.863 18.588 109.455 19.452 108.831 20.22C108.223 20.972 107.447 21.572 106.503 22.02C105.575 22.452 104.551 22.668 103.431 22.668C102.087 22.668 100.887 22.388 99.8311 21.828C98.7911 21.268 97.9751 20.468 97.3831 19.428C96.8071 18.372 96.5191 17.14 96.5191 15.732C96.5191 14.324 96.8071 13.1 97.3831 12.06C97.9751 11.004 98.7911 10.196 99.8311 9.636C100.887 9.076 102.087 8.796 103.431 8.796C104.775 8.796 105.967 9.076 107.007 9.636C108.063 10.18 108.879 10.964 109.455 11.988C110.047 13.012 110.343 14.22 110.343 15.612ZM104.943 14.34C104.943 13.892 104.799 13.556 104.511 13.332C104.223 13.092 103.863 12.972 103.431 12.972C102.487 12.972 101.935 13.428 101.775 14.34H104.943ZM117.356 10.812C117.692 10.188 118.172 9.7 118.796 9.348C119.436 8.98 120.196 8.796 121.076 8.796C122.132 8.796 123.084 9.076 123.932 9.636C124.78 10.18 125.444 10.98 125.924 12.036C126.42 13.076 126.668 14.308 126.668 15.732C126.668 17.156 126.42 18.396 125.924 19.452C125.444 20.492 124.78 21.292 123.932 21.852C123.084 22.396 122.132 22.668 121.076 22.668C120.196 22.668 119.436 22.492 118.796 22.14C118.172 21.772 117.692 21.276 117.356 20.652V28.98H112.028V8.964H117.356V10.812ZM121.268 15.732C121.268 15.012 121.084 14.452 120.716 14.052C120.348 13.652 119.876 13.452 119.3 13.452C118.724 13.452 118.252 13.652 117.884 14.052C117.516 14.452 117.332 15.012 117.332 15.732C117.332 16.452 117.516 17.012 117.884 17.412C118.252 17.812 118.724 18.012 119.3 18.012C119.876 18.012 120.348 17.812 120.716 17.412C121.084 17.012 121.268 16.452 121.268 15.732Z" fill="#17A068"/>
</svg>
